<?xml version="1.0" encoding="UTF-8"?>
<!DOCTYPE svg PUBLIC "-//W3C//DTD SVG 1.1//EN" "http://www.w3.org/Graphics/SVG/1.1/DTD/svg11.dtd">
<svg xmlns="http://www.w3.org/2000/svg" version="1.1" width="512px" height="512px" style="shape-rendering:geometricPrecision; text-rendering:geometricPrecision; image-rendering:optimizeQuality; fill-rule:evenodd; clip-rule:evenodd" xmlns:xlink="http://www.w3.org/1999/xlink">
<g><path style="opacity:1" fill="#e1f162" d="M 270.5,5.5 C 272.241,29.8932 274.407,54.5598 277,79.5C 282.43,125.677 300.763,165.677 332,199.5C 349.333,217.5 366.667,235.5 384,253.5C 430.28,312.333 432.28,372.666 390,434.5C 366.267,464.28 337.434,487.78 303.5,505C 302.5,505.667 301.5,505.667 300.5,505C 321.491,475.22 326.991,442.72 317,407.5C 314.922,400.266 312.256,393.266 309,386.5C 305.816,396.052 301.482,405.052 296,413.5C 290.781,419.225 284.614,423.558 277.5,426.5C 277.167,426 276.833,425.5 276.5,425C 284.76,398.024 283.26,371.524 272,345.5C 264.015,327.867 254.015,311.534 242,296.5C 241.327,320.54 236.994,343.873 229,366.5C 226.113,373.942 222.446,380.942 218,387.5C 210,396.833 202,406.167 194,415.5C 180.066,438.754 180.066,462.087 194,485.5C 198.009,492.185 202.509,498.518 207.5,504.5C 173.907,489.04 144.74,467.04 120,438.5C 87.1074,394.136 81.7741,346.469 104,295.5C 115.901,268.007 131.568,243.007 151,220.5C 154.243,238.503 162.743,253.336 176.5,265C 181.474,268.321 186.807,270.821 192.5,272.5C 168.727,168.532 194.727,79.5321 270.5,5.5 Z"/></g>
</svg>
