<?xml version="1.0" encoding="UTF-8"?>
<!DOCTYPE svg PUBLIC "-//W3C//DTD SVG 1.1//EN" "http://www.w3.org/Graphics/SVG/1.1/DTD/svg11.dtd">
<svg xmlns="http://www.w3.org/2000/svg" version="1.1" width="512px" height="512px" style="shape-rendering:geometricPrecision; text-rendering:geometricPrecision; image-rendering:optimizeQuality; fill-rule:evenodd; clip-rule:evenodd" xmlns:xlink="http://www.w3.org/1999/xlink">
<g><path style="opacity:1" fill="#e1f162" d="M 232.5,-0.5 C 247.833,-0.5 263.167,-0.5 278.5,-0.5C 368.144,10.3879 435.644,54.7213 481,132.5C 497.695,163.972 507.862,197.305 511.5,232.5C 511.5,247.833 511.5,263.167 511.5,278.5C 500.612,368.144 456.279,435.644 378.5,481C 347.029,497.695 313.696,507.861 278.5,511.5C 263.167,511.5 247.833,511.5 232.5,511.5C 142.855,500.612 75.3552,456.278 30,378.5C 13.3053,347.029 3.1386,313.696 -0.5,278.5C -0.5,263.167 -0.5,247.833 -0.5,232.5C 10.3879,142.856 54.7213,75.3562 132.5,30C 163.971,13.3053 197.304,3.1386 232.5,-0.5 Z M 251.5,91.5 C 262.708,90.8949 269.875,95.8949 273,106.5C 273.986,158.225 273.653,209.892 272,261.5C 269.925,265.579 267.092,269.079 263.5,272C 233.833,295.667 204.167,319.333 174.5,343C 162.099,349.2 152.932,346.033 147,333.5C 145.663,327.187 146.996,321.52 151,316.5C 179.849,293.74 208.516,270.74 237,247.5C 237.333,200.5 237.667,153.5 238,106.5C 239.573,98.7647 244.073,93.7647 251.5,91.5 Z"/></g>
</svg>
