<?xml version="1.0" encoding="UTF-8"?>
<!DOCTYPE svg PUBLIC "-//W3C//DTD SVG 1.1//EN" "http://www.w3.org/Graphics/SVG/1.1/DTD/svg11.dtd">
<svg xmlns="http://www.w3.org/2000/svg" version="1.1" width="512px" height="512px" style="shape-rendering:geometricPrecision; text-rendering:geometricPrecision; image-rendering:optimizeQuality; fill-rule:evenodd; clip-rule:evenodd" xmlns:xlink="http://www.w3.org/1999/xlink">
<g><path style="opacity:1" fill="#f4f4ee" d="M 245.5,24.5 C 304.002,23.3287 349.168,46.9954 381,95.5C 392.915,115.912 399.582,137.912 401,161.5C 404.279,164.779 407.613,168.113 411,171.5C 412.275,173.717 413.275,176.051 414,178.5C 414.667,198.833 414.667,219.167 414,239.5C 408.808,254.481 398.308,260.314 382.5,257C 380.385,256.443 378.385,255.609 376.5,254.5C 357.393,267.032 336.393,274.198 313.5,276C 310.29,277.201 307.623,279.201 305.5,282C 303.285,283.044 300.952,283.71 298.5,284C 291.5,284.667 284.5,284.667 277.5,284C 264.734,280.634 260.901,272.801 266,260.5C 267.938,257.894 270.438,256.061 273.5,255C 283.167,254.333 292.833,254.333 302.5,255C 305.362,255.93 307.695,257.597 309.5,260C 330.125,259.095 349.125,253.095 366.5,242C 365.773,240.601 365.273,239.101 365,237.5C 364.333,218.833 364.333,200.167 365,181.5C 366.289,174.055 370.123,168.389 376.5,164.5C 375.691,131.046 363.025,102.879 338.5,80C 298.918,46.7363 254.918,39.403 206.5,58C 166.116,77.4004 141.949,109.234 134,153.5C 133.175,157.211 133.341,160.878 134.5,164.5C 140.877,168.389 144.711,174.055 146,181.5C 146.667,200.167 146.667,218.833 146,237.5C 139.723,256.051 127.223,261.884 108.5,255C 102.359,251.528 98.5259,246.362 97,239.5C 96.3333,219.167 96.3333,198.833 97,178.5C 97.7246,176.051 98.7246,173.717 100,171.5C 103.387,168.113 106.721,164.779 110,161.5C 116.786,96.3999 150.953,52.8999 212.5,31C 223.473,27.9716 234.473,25.8049 245.5,24.5 Z"/></g>
<g><path style="opacity:1" fill="#f4f4ee" d="M 253.5,70.5 C 303.648,70.5095 335.482,94.5095 349,142.5C 355.979,177.294 351.646,210.627 336,242.5C 329.817,245.239 323.317,246.905 316.5,247.5C 310.561,244.579 304.228,242.746 297.5,242C 288.792,241.248 280.125,241.581 271.5,243C 254.919,249.327 248.752,261.16 253,278.5C 257.315,288.488 264.815,294.321 275.5,296C 284.868,296.752 294.201,296.585 303.5,295.5C 300.54,305.842 303.207,314.342 311.5,321C 323.396,328.279 336.063,333.946 349.5,338C 370.088,346.622 389.421,357.289 407.5,370C 431.575,388.772 439.409,412.939 431,442.5C 426.418,451.17 419.918,458.004 411.5,463C 399.57,469.644 386.903,474.31 373.5,477C 334.338,484.144 294.838,487.311 255,486.5C 216.145,487.427 177.645,484.261 139.5,477C 124.966,473.823 111.299,468.49 98.5,461C 76.5728,443.902 71.0728,422.402 82,396.5C 86.6551,387.837 92.8218,380.337 100.5,374C 130.135,352.512 162.135,335.179 196.5,322C 208.773,314.514 212.273,304.014 207,290.5C 193.318,273.146 181.652,254.479 172,234.5C 157.276,198.944 155.943,162.944 168,126.5C 184.97,90.3834 213.47,71.7168 253.5,70.5 Z"/></g>
</svg>
