<?xml version="1.0" encoding="UTF-8"?>
<!DOCTYPE svg PUBLIC "-//W3C//DTD SVG 1.1//EN" "http://www.w3.org/Graphics/SVG/1.1/DTD/svg11.dtd">
<svg xmlns="http://www.w3.org/2000/svg" version="1.1" width="512px" height="512px" style="shape-rendering:geometricPrecision; text-rendering:geometricPrecision; image-rendering:optimizeQuality; fill-rule:evenodd; clip-rule:evenodd" xmlns:xlink="http://www.w3.org/1999/xlink">
<g><path style="opacity:1" fill="#f4f4ee" d="M 247.5,41.5 C 273.266,40.2722 296.6,47.1055 317.5,62C 356.876,95.0443 396.542,127.711 436.5,160C 455.669,176.836 466.502,198.003 469,223.5C 469.967,280.858 469.634,338.191 468,395.5C 458.97,437.866 433.137,462.366 390.5,469C 372.167,469.667 353.833,469.667 335.5,469C 314.333,465.167 301.833,452.667 298,431.5C 297.667,404.167 297.333,376.833 297,349.5C 293.025,328.859 280.858,316.025 260.5,311C 241.241,310.216 227.074,318.383 218,335.5C 216.046,339.981 214.713,344.648 214,349.5C 213.959,378.54 213.292,407.54 212,436.5C 206.753,455.079 194.586,465.913 175.5,469C 157.167,469.667 138.833,469.667 120.5,469C 85.612,464.439 61.4454,445.939 48,413.5C 44.7393,405.124 42.7393,396.457 42,387.5C 41.3333,332.833 41.3333,278.167 42,223.5C 44.4076,198.518 54.9076,177.684 73.5,161C 113.791,128.378 153.791,95.3775 193.5,62C 209.767,50.3573 227.767,43.524 247.5,41.5 Z"/></g>
</svg>
