<?xml version="1.0" encoding="UTF-8"?>
<!DOCTYPE svg PUBLIC "-//W3C//DTD SVG 1.1//EN" "http://www.w3.org/Graphics/SVG/1.1/DTD/svg11.dtd">
<svg xmlns="http://www.w3.org/2000/svg" version="1.1" width="512px" height="512px" style="shape-rendering:geometricPrecision; text-rendering:geometricPrecision; image-rendering:optimizeQuality; fill-rule:evenodd; clip-rule:evenodd" xmlns:xlink="http://www.w3.org/1999/xlink">
<g><path style="opacity:1" fill="#f4f4ee" d="M 250.5,50.5 C 261.837,49.5543 271.337,53.221 279,61.5C 296.69,97.0465 314.523,132.546 332.5,168C 370.452,173.946 408.452,179.612 446.5,185C 464.704,191.568 471.871,204.401 468,223.5C 466.185,227.796 463.852,231.796 461,235.5C 433.654,262.013 406.487,288.68 379.5,315.5C 386.421,353.776 393.088,392.109 399.5,430.5C 395.151,454.504 381.151,463.67 357.5,458C 323.342,440.422 289.342,422.588 255.5,404.5C 221.658,422.588 187.658,440.422 153.5,458C 129.849,463.67 115.849,454.504 111.5,430.5C 117.912,392.109 124.579,353.776 131.5,315.5C 104.513,288.68 77.346,262.013 50,235.5C 40.0473,223.245 39.0473,210.245 47,196.5C 51.6167,190.778 57.4501,186.944 64.5,185C 102.548,179.612 140.548,173.946 178.5,168C 196.066,133.701 213.233,99.201 230,64.5C 235.117,57.1992 241.951,52.5326 250.5,50.5 Z"/></g>
</svg>
