<?xml version="1.0" encoding="UTF-8"?>
<!DOCTYPE svg PUBLIC "-//W3C//DTD SVG 1.1//EN" "http://www.w3.org/Graphics/SVG/1.1/DTD/svg11.dtd">
<svg xmlns="http://www.w3.org/2000/svg" version="1.1" width="512px" height="512px" style="shape-rendering:geometricPrecision; text-rendering:geometricPrecision; image-rendering:optimizeQuality; fill-rule:evenodd; clip-rule:evenodd" xmlns:xlink="http://www.w3.org/1999/xlink">
<g><path style="opacity:1" fill="#f4f4ee" d="M 142.5,41.5 C 201.834,41.3333 261.168,41.5 320.5,42C 333.535,43.3428 345.202,48.0095 355.5,56C 376.727,76.5587 397.227,97.7253 417,119.5C 421.587,127.262 424.587,135.595 426,144.5C 426.667,234.5 426.667,324.5 426,414.5C 419.475,446.025 400.309,464.192 368.5,469C 293.167,469.667 217.833,469.667 142.5,469C 110.691,464.192 91.5247,446.025 85,414.5C 84.3333,308.5 84.3333,202.5 85,96.5C 91.6999,64.9637 110.867,46.6303 142.5,41.5 Z M 319.5,63.5 C 323.514,63.3345 327.514,63.5012 331.5,64C 355.667,88.1667 379.833,112.333 404,136.5C 404.499,140.821 404.666,145.154 404.5,149.5C 388.497,149.667 372.497,149.5 356.5,149C 336.98,145.813 324.814,134.646 320,115.5C 319.5,98.1699 319.333,80.8365 319.5,63.5 Z M 219.5,177.5 C 226.795,176.986 233.462,178.82 239.5,183C 269.003,200.586 298.669,217.919 328.5,235C 342.183,243.732 345.016,255.232 337,269.5C 302.411,291.215 267.244,312.048 231.5,332C 216.386,335.698 206.553,330.198 202,315.5C 201.333,275.5 201.333,235.5 202,195.5C 204.014,185.654 209.847,179.654 219.5,177.5 Z"/></g>
</svg>
