<?xml version="1.0" encoding="UTF-8"?>
<!DOCTYPE svg PUBLIC "-//W3C//DTD SVG 1.1//EN" "http://www.w3.org/Graphics/SVG/1.1/DTD/svg11.dtd">
<svg xmlns="http://www.w3.org/2000/svg" version="1.1" width="512px" height="512px" style="shape-rendering:geometricPrecision; text-rendering:geometricPrecision; image-rendering:optimizeQuality; fill-rule:evenodd; clip-rule:evenodd" xmlns:xlink="http://www.w3.org/1999/xlink">
<g><path style="opacity:1" fill="#dfee61" d="M 362.5,-0.5 C 367.833,-0.5 373.167,-0.5 378.5,-0.5C 381.9,1.03697 385.233,2.8703 388.5,5C 427.667,44.1667 466.833,83.3333 506,122.5C 508.13,125.767 509.963,129.1 511.5,132.5C 511.5,137.833 511.5,143.167 511.5,148.5C 509.963,151.9 508.13,155.233 506,158.5C 500.833,163.667 495.667,168.833 490.5,174C 485.275,176.243 480.275,175.909 475.5,173C 428.639,126.472 382.139,79.6391 336,32.5C 335.146,28.3749 335.48,24.3749 337,20.5C 342.167,15.3333 347.333,10.1667 352.5,5C 355.767,2.8703 359.1,1.03697 362.5,-0.5 Z"/></g>
<g><path style="opacity:1" fill="#dfee61" d="M 292.5,21.5 C 296.308,21.1632 299.974,21.6632 303.5,23C 365,84.5 426.5,146 488,207.5C 490.168,212.657 489.835,217.657 487,222.5C 479.833,229.667 472.667,236.833 465.5,244C 453.089,253.534 440.422,253.867 427.5,245C 373.667,191.167 319.833,137.333 266,83.5C 257.133,70.5775 257.466,57.9108 267,45.5C 275.094,36.9012 283.594,28.9012 292.5,21.5 Z"/></g>
<g><path style="opacity:1" fill="#dfee61" d="M 445.5,26.5 C 452.676,25.7944 459.343,27.2944 465.5,31C 470.333,35.8333 475.167,40.6667 480,45.5C 484.764,53.3116 485.598,61.4783 482.5,70C 481.234,70.3095 480.067,70.8095 479,71.5C 465.753,60.2564 453.086,48.2564 441,35.5C 438.984,30.7066 440.484,27.7066 445.5,26.5 Z"/></g>
<g><path style="opacity:1" fill="#dfee61" d="M 310.5,156.5 C 313.794,156.259 316.794,157.092 319.5,159C 330.333,169.833 341.167,180.667 352,191.5C 355.333,195.833 355.333,200.167 352,204.5C 302.833,253.667 253.667,302.833 204.5,352C 200.167,355.333 195.833,355.333 191.5,352C 180.667,341.167 169.833,330.333 159,319.5C 155.667,315.167 155.667,310.833 159,306.5C 209.089,255.91 259.589,205.91 310.5,156.5 Z"/></g>
<g><path style="opacity:1" fill="#dfee61" d="M 61.5,259.5 C 69.5863,259.215 76.9196,261.382 83.5,266C 137.333,319.833 191.167,373.667 245,427.5C 254.067,441.018 253.401,454.018 243,466.5C 236.167,473.333 229.333,480.167 222.5,487C 217.657,489.835 212.657,490.168 207.5,488C 146,426.5 84.5,365 23,303.5C 20.8319,298.343 21.1652,293.343 24,288.5C 31.1667,281.333 38.3333,274.167 45.5,267C 50.286,263.104 55.6194,260.604 61.5,259.5 Z"/></g>
<g><path style="opacity:1" fill="#dfee61" d="M 148.5,511.5 C 143.167,511.5 137.833,511.5 132.5,511.5C 129.1,509.963 125.767,508.13 122.5,506C 83.3333,466.833 44.1667,427.667 5,388.5C 2.8703,385.233 1.03697,381.9 -0.5,378.5C -0.5,373.167 -0.5,367.833 -0.5,362.5C 1.03697,359.1 2.8703,355.767 5,352.5C 10.5,347 16,341.5 21.5,336C 25.5,334 29.5,334 33.5,336C 80.3333,382.833 127.167,429.667 174,476.5C 176,481.167 176,485.833 174,490.5C 168.833,495.667 163.667,500.833 158.5,506C 155.233,508.13 151.9,509.963 148.5,511.5 Z"/></g>
<g><path style="opacity:1" fill="#dfee61" d="M 31.5,439.5 C 32.766,440.09 34.0993,440.59 35.5,441C 48.2564,453.086 60.2564,465.753 71.5,479C 70.8333,480.333 70.1667,481.667 69.5,483C 61.0527,485.555 53.0527,484.555 45.5,480C 38.5423,474.049 32.7089,467.215 28,459.5C 26,453.5 26,447.5 28,441.5C 29.3024,440.915 30.469,440.249 31.5,439.5 Z"/></g>
</svg>
