<?xml version="1.0" encoding="UTF-8"?>
<!DOCTYPE svg PUBLIC "-//W3C//DTD SVG 1.1//EN" "http://www.w3.org/Graphics/SVG/1.1/DTD/svg11.dtd">
<svg xmlns="http://www.w3.org/2000/svg" version="1.1" width="512px" height="512px" style="shape-rendering:geometricPrecision; text-rendering:geometricPrecision; image-rendering:optimizeQuality; fill-rule:evenodd; clip-rule:evenodd" xmlns:xlink="http://www.w3.org/1999/xlink">
<g><path style="opacity:1" fill="#dfee61" d="M -0.5,294.5 C -0.5,280.5 -0.5,266.5 -0.5,252.5C 1.87343,230.198 8.0401,208.864 18,188.5C 38.4198,154.442 68.7532,137.442 109,137.5C 136.324,139.582 163.491,142.915 190.5,147.5C 185.921,110.485 168.254,81.6513 137.5,61C 132.465,58.6593 127.465,56.3259 122.5,54C 125.715,44.9782 128.549,35.8115 131,26.5C 131.561,25.9781 132.228,25.6448 133,25.5C 147.061,29.6113 159.561,36.4446 170.5,46C 200.931,73.0285 217.931,106.862 221.5,147.5C 248.168,142.905 275.001,139.571 302,137.5C 355.911,139.089 390.244,165.755 405,217.5C 409.237,230.909 411.07,244.576 410.5,258.5C 357.383,263.471 320.549,290.471 300,339.5C 283.39,386.27 290.89,428.603 322.5,466.5C 303.995,479.667 283.329,486 260.5,485.5C 242.278,484.452 224.112,482.785 206,480.5C 192.452,481.531 178.952,483.031 165.5,485C 133.12,488.98 104.453,480.646 79.5,460C 40.4335,422.052 15.2668,376.219 4,322.5C 2.32381,313.05 0.823813,303.717 -0.5,294.5 Z"/></g>
<g><path style="opacity:1" fill="#dfee61" d="M 511.5,369.5 C 511.5,379.167 511.5,388.833 511.5,398.5C 502.117,444.048 474.45,470.881 428.5,479C 387.195,482.596 355.361,467.096 333,432.5C 313.259,392.827 316.926,355.494 344,320.5C 373.839,289.499 409.339,280.665 450.5,294C 485.059,307.721 505.393,332.888 511.5,369.5 Z M 443.5,348.5 C 451.091,354.421 458.091,361.088 464.5,368.5C 445.5,388.167 426.167,407.5 406.5,426.5C 394.681,415.181 383.014,403.681 371.5,392C 378.333,385.167 385.167,378.333 392,371.5C 396.5,376 401,380.5 405.5,385C 406.167,385.667 406.833,385.667 407.5,385C 419.702,372.965 431.702,360.798 443.5,348.5 Z"/></g>
</svg>
