<?xml version="1.0" encoding="UTF-8"?>
<!DOCTYPE svg PUBLIC "-//W3C//DTD SVG 1.1//EN" "http://www.w3.org/Graphics/SVG/1.1/DTD/svg11.dtd">
<svg xmlns="http://www.w3.org/2000/svg" version="1.1" width="512px" height="512px" style="shape-rendering:geometricPrecision; text-rendering:geometricPrecision; image-rendering:optimizeQuality; fill-rule:evenodd; clip-rule:evenodd" xmlns:xlink="http://www.w3.org/1999/xlink">
<g><path style="opacity:1" fill="#b2a0ff" d="M 247.5,-0.5 C 252.833,-0.5 258.167,-0.5 263.5,-0.5C 277.161,4.75352 285.161,14.7535 287.5,29.5C 299.505,29.3335 311.505,29.5001 323.5,30C 334.667,33.1667 341.833,40.3333 345,51.5C 345.95,61.9325 345.617,72.2659 344,82.5C 342.235,85.473 339.735,87.6396 336.5,89C 282.5,89.6667 228.5,89.6667 174.5,89C 171.265,87.6396 168.765,85.473 167,82.5C 165.383,72.2659 165.05,61.9325 166,51.5C 169.167,40.3333 176.333,33.1667 187.5,30C 199.495,29.5001 211.495,29.3335 223.5,29.5C 225.839,14.7535 233.839,4.75352 247.5,-0.5 Z"/></g>
<g><path style="opacity:1" fill="#b2a0ff" d="M 414.5,511.5 C 308.5,511.5 202.5,511.5 96.5,511.5C 77.7774,505.941 65.944,493.608 61,474.5C 60.3333,347.833 60.3333,221.167 61,94.5C 65.8333,76.3333 77.3333,64.8333 95.5,60C 108.829,59.5001 122.163,59.3334 135.5,59.5C 133.771,75.2126 137.271,89.5459 146,102.5C 155.086,112.959 166.586,118.459 180.5,119C 230.5,119.667 280.5,119.667 330.5,119C 353.393,117.439 367.893,105.606 374,83.5C 375.098,75.536 375.598,67.536 375.5,59.5C 388.837,59.3334 402.171,59.5001 415.5,60C 433.667,64.8333 445.167,76.3333 450,94.5C 450.667,221.167 450.667,347.833 450,474.5C 445.056,493.608 433.223,505.941 414.5,511.5 Z M 220.5,150.5 C 235.772,149.73 241.605,156.73 238,171.5C 216.833,194 195,215.833 172.5,237C 166.438,239.428 160.772,238.761 155.5,235C 144.303,224.137 133.47,212.971 123,201.5C 119.375,186.582 125.208,179.748 140.5,181C 149.1,187.596 157.1,194.93 164.5,203C 165.167,203.667 165.833,203.667 166.5,203C 184.091,184.907 202.091,167.407 220.5,150.5 Z M 285.5,179.5 C 315.502,179.333 345.502,179.5 375.5,180C 386.29,182.067 390.79,188.567 389,199.5C 386.187,204.996 381.687,208.162 375.5,209C 345.5,209.667 315.5,209.667 285.5,209C 271.472,205.437 267.972,197.271 275,184.5C 278.147,181.841 281.647,180.174 285.5,179.5 Z M 220.5,255.5 C 235.772,254.73 241.605,261.73 238,276.5C 216.833,299 195,320.833 172.5,342C 166.438,344.428 160.772,343.761 155.5,340C 144.303,329.137 133.47,317.971 123,306.5C 119.375,291.582 125.208,284.748 140.5,286C 149.1,292.596 157.1,299.93 164.5,308C 165.167,308.667 165.833,308.667 166.5,308C 184.091,289.907 202.091,272.407 220.5,255.5 Z M 285.5,284.5 C 315.502,284.333 345.502,284.5 375.5,285C 386.29,287.067 390.79,293.567 389,304.5C 386.187,309.996 381.687,313.162 375.5,314C 345.5,314.667 315.5,314.667 285.5,314C 271.472,310.437 267.972,302.271 275,289.5C 278.147,286.841 281.647,285.174 285.5,284.5 Z M 220.5,360.5 C 235.772,359.73 241.605,366.73 238,381.5C 216.833,404 195,425.833 172.5,447C 166.438,449.428 160.772,448.761 155.5,445C 144.303,434.137 133.47,422.971 123,411.5C 119.375,396.582 125.208,389.748 140.5,391C 149.1,397.596 157.1,404.93 164.5,413C 165.167,413.667 165.833,413.667 166.5,413C 184.091,394.907 202.091,377.407 220.5,360.5 Z M 285.5,389.5 C 315.502,389.333 345.502,389.5 375.5,390C 386.29,392.067 390.79,398.567 389,409.5C 386.187,414.996 381.687,418.162 375.5,419C 345.5,419.667 315.5,419.667 285.5,419C 271.472,415.437 267.972,407.271 275,394.5C 278.147,391.841 281.647,390.174 285.5,389.5 Z"/></g>
</svg>
