<?xml version="1.0" encoding="UTF-8"?>
<!DOCTYPE svg PUBLIC "-//W3C//DTD SVG 1.1//EN" "http://www.w3.org/Graphics/SVG/1.1/DTD/svg11.dtd">
<svg xmlns="http://www.w3.org/2000/svg" version="1.1" width="512px" height="512px" style="shape-rendering:geometricPrecision; text-rendering:geometricPrecision; image-rendering:optimizeQuality; fill-rule:evenodd; clip-rule:evenodd" xmlns:xlink="http://www.w3.org/1999/xlink">
<g><path style="opacity:1" fill="#b2a0ff" d="M 152.5,41.5 C 189.868,40.9157 213.368,58.5824 223,94.5C 226.671,130.442 211.838,154.942 178.5,168C 142.784,175.887 116.617,163.72 100,131.5C 87.8666,92.8726 99.7,64.3726 135.5,46C 141.253,44.3137 146.919,42.8137 152.5,41.5 Z"/></g>
<g><path style="opacity:1" fill="#b2a0ff" d="M 344.5,41.5 C 381.868,40.9157 405.368,58.5824 415,94.5C 418.671,130.442 403.838,154.942 370.5,168C 334.784,175.887 308.617,163.72 292,131.5C 279.867,92.8726 291.7,64.3726 327.5,46C 333.253,44.3137 338.919,42.8137 344.5,41.5 Z"/></g>
<g><path style="opacity:1" fill="#b2a0ff" d="M 248.5,169.5 C 285.868,168.916 309.368,186.582 319,222.5C 322.671,258.442 307.838,282.942 274.5,296C 238.784,303.887 212.617,291.72 196,259.5C 183.867,220.873 195.7,192.373 231.5,174C 237.253,172.314 242.919,170.814 248.5,169.5 Z"/></g>
<g><path style="opacity:1" fill="#b2a0ff" d="M 71.5,191.5 C 108.502,191.333 145.502,191.5 182.5,192C 166.708,219.99 166.541,248.157 182,276.5C 187.076,284.247 192.909,291.413 199.5,298C 189.833,298.333 180.167,298.667 170.5,299C 147.468,302.202 131.135,314.368 121.5,335.5C 95.2505,331.461 74.4172,318.461 59,296.5C 44.3244,272.781 38.9911,247.115 43,219.5C 47.1148,204.551 56.6148,195.217 71.5,191.5 Z"/></g>
<g><path style="opacity:1" fill="#b2a0ff" d="M 328.5,192.5 C 365.331,191.336 402.331,191.169 439.5,192C 456.31,196.425 466.143,207.258 469,224.5C 472.066,260.651 460.566,291.151 434.5,316C 421.869,325.898 407.702,332.731 392,336.5C 391.167,336.167 390.333,335.833 389.5,335.5C 379.865,314.368 363.532,302.202 340.5,299C 330.833,298.667 321.167,298.333 311.5,298C 338.527,271.727 346.36,240.56 335,204.5C 333.582,199.99 331.415,195.99 328.5,192.5 Z"/></g>
<g><path style="opacity:1" fill="#b2a0ff" d="M 167.5,319.5 C 226.168,319.333 284.834,319.5 343.5,320C 360.31,324.425 370.143,335.258 373,352.5C 376.032,388.085 364.865,418.252 339.5,443C 321.382,457.379 300.716,465.712 277.5,468C 249.294,471.618 221.96,468.285 195.5,458C 156.954,438.379 137.62,406.712 137.5,363C 136.473,340.578 146.473,326.078 167.5,319.5 Z"/></g>
</svg>
